<?xml version="1.0" encoding="UTF-8" standalone="no"?>
<!DOCTYPE svg PUBLIC "-//W3C//DTD SVG 1.1//EN" "http://www.w3.org/Graphics/SVG/1.1/DTD/svg11.dtd">
<svg width="100%" height="100%" viewBox="0 0 256 256" version="1.1" xmlns="http://www.w3.org/2000/svg" xmlns:xlink="http://www.w3.org/1999/xlink" xml:space="preserve" xmlns:serif="http://www.serif.com/" style="fill-rule:evenodd;clip-rule:evenodd;stroke-linejoin:round;stroke-miterlimit:2;">
    <rect x="0" y="0" width="256" height="256" style="fill:rgb(217,34,84);"/>
    <g transform="matrix(1.21602,0,0,1.21602,-325.324,-168.052)">
        <path d="M386.415,181.762C387.135,179.754 387.98,177.771 388.961,175.819C391.4,170.971 395.103,166.481 400.612,164.801C400.808,164.745 401.004,164.691 401.201,164.639C409.718,162.544 418.294,168.456 423.758,173.879C438.009,188.021 446.013,208.118 450.501,228.132C454.646,246.612 456.838,266.576 448.693,284.003C448.406,284.618 448.102,285.225 447.779,285.822C444.672,291.562 439.248,296.702 431.982,296.564C425.483,296.441 419.913,293.057 415.248,288.739C404.378,285.924 390.218,283.837 378.96,283.869C378.613,287.004 374.527,311.565 359.747,324.615C358.28,325.911 352.454,329.067 353.659,317.473C354.907,305.454 348.63,289.779 334.3,290.471C329.118,290.722 324.433,292.681 321.479,293.64C321.479,293.64 321.289,293.668 320.986,293.68C320.657,293.832 320.315,293.943 319.964,294.004C300.733,297.327 284.057,262.362 291.582,238.896C293.362,233.345 296.795,227.22 302.842,226.243C306.119,224.568 312.58,224.042 317.752,222.435C343.179,214.536 367.871,200.912 386.415,181.762ZM406.531,185.432C401.775,196.088 402.845,208.831 404.84,221.105C407.65,238.392 413.459,255.713 424.436,269.224C426.272,271.483 428.274,273.629 430.62,275.331C430.62,275.331 431.549,273.158 431.967,271.652C435.985,257.184 433.578,241.251 429.427,226.294C425.544,212.3 419.929,198.255 409.67,188.075C408.429,186.843 406.654,185.162 406.531,185.432Z" style="fill:white;"/>
    </g>
</svg>
